<svg xmlns="http://www.w3.org/2000/svg" xmlns:xlink="http://www.w3.org/1999/xlink" viewBox="0 0 209.67 208.67"><defs><style>.cls-1{fill:none;clip-rule:evenodd;}.cls-2{isolation:isolate;}.cls-3{fill:#6a6676;}.cls-3,.cls-5,.cls-6,.cls-7,.cls-8{fill-rule:evenodd;}.cls-4{clip-path:url(#clip-path);}.cls-5,.cls-6,.cls-7{opacity:0.3;mix-blend-mode:multiply;}.cls-5{fill:url(#linear-gradient);}.cls-6{fill:url(#linear-gradient-2);}.cls-7{fill:url(#linear-gradient-3);}.cls-8{fill:#99c1bc;}.cls-9{fill:#fff;}</style><clipPath id="clip-path"><path class="cls-1" d="M103.75,15.16a90.59,90.59,0,1,0,90.59,90.59V15.16Z"/></clipPath><linearGradient id="linear-gradient" x1="108.7" y1="198.22" x2="108.7" y2="147.19" gradientUnits="userSpaceOnUse"><stop offset="0" stop-color="#fff"/><stop offset="1" stop-color="#6a6676"/></linearGradient><linearGradient id="linear-gradient-2" x1="117.18" y1="138.59" x2="117.18" y2="87.56" xlink:href="#linear-gradient"/><linearGradient id="linear-gradient-3" x1="60.85" y1="143.77" x2="60.85" y2="92.74" xlink:href="#linear-gradient"/></defs><title>division classic</title><g id="Ellipse_3_copy_4" data-name="Ellipse 3 copy 4" class="cls-2"><path class="cls-3" d="M103.75,15.16a90.59,90.59,0,1,0,90.59,90.59V15.16Z"/><g class="cls-4"><polygon class="cls-5" points="83.32 198.22 134.07 198.22 134.07 147.19 134.07 147.19 83.32 198.22"/><polygon class="cls-6" points="91.81 138.59 142.55 138.59 142.55 87.56 142.55 87.56 91.81 138.59"/><polygon class="cls-7" points="35.48 143.77 86.22 143.77 86.22 92.74 86.22 92.74 35.48 143.77"/><path class="cls-8" d="M86.16,92.83l-17.34.07,1.9-15.52-4.13-4.13-92.51,92.47a13.86,13.86,0,0,0,0,19.6h0a13.86,13.86,0,0,0,19.6,0ZM56.73,98a2.59,2.59,0,1,1,0-3.67A2.59,2.59,0,0,1,56.73,98Z"/><path class="cls-8" d="M142.36,87.31,125,87.38l1.9-15.52-4.13-4.13L6.38,184.1a13.86,13.86,0,0,0,0,19.6h0a13.86,13.86,0,0,0,19.6,0Zm-29.43,5.2a2.59,2.59,0,1,1,0-3.67A2.59,2.59,0,0,1,112.93,92.51Z"/><path class="cls-8" d="M134.07,147.19l-17.34.07,1.9-15.52-4.13-4.13L22,220.08a13.86,13.86,0,0,0,0,19.6h0a13.86,13.86,0,0,0,19.6,0Zm-29.43,5.2a2.59,2.59,0,1,1,0-3.67A2.59,2.59,0,0,1,104.63,152.39Z"/></g><circle class="cls-9" cx="157.63" cy="50.88" r="6.27"/></g></svg>