<svg xmlns="http://www.w3.org/2000/svg" viewBox="0 0 304.83 31.13"><defs><style>.cls-1{isolation:isolate;}.cls-2{fill:#f06a53;}.cls-3{fill:#fff;}</style></defs><title>bs logo light</title><g id="Ellipse_3_copy_4" data-name="Ellipse 3 copy 4" class="cls-1"><g id="Shape_1_copy" data-name="Shape 1 copy"><polygon class="cls-2" points="164.44 14.71 159.22 13.71 156.65 9.06 154.08 13.71 148.85 14.71 152.49 18.58 151.83 23.85 156.65 21.59 161.47 23.85 160.81 18.58 164.44 14.71"/></g><g id="Ellipse_2_copy" data-name="Ellipse 2 copy"><circle class="cls-2" cx="3.45" cy="13.43" r="1.43"/></g><g id="Ellipse_2_copy-2" data-name="Ellipse 2 copy"><circle class="cls-2" cx="302.01" cy="13.5" r="1.42"/></g><path class="cls-3" d="M37.79,2.46h8.53L57.17,28.37H47.83l-1.36-3.46h-9l-1.32,3.46H27Zm6.54,16.36L42,12.56l-2.35,6.25Z"/><polygon class="cls-3" points="49.49 2.64 52.49 9.92 60.44 9.92 60.44 28.37 69.04 28.37 69.04 9.92 80.97 9.92 80.97 28.37 89.57 28.37 89.57 9.92 97.14 9.92 97.14 2.64 49.49 2.64"/><path class="cls-3" d="M98.66,2.64h8.6V21h12.09v7.35H98.66Z"/><path class="cls-3" d="M121.09,2.64H143V9.7H129.55v2.61h7.06v6.21h-7.06v2.79h13.67v7.06H121.09Z"/><path class="cls-3" d="M168.26,24.55l4.58-5.46a14.71,14.71,0,0,0,9,3c1.54,0,2.2-.4,2.2-1.1v-.07c0-.73-.81-1.14-3.56-1.69-5.76-1.17-10.81-2.82-10.81-8.25v-.07c0-4.88,3.81-8.65,10.89-8.65,4.95,0,8.62,1.17,11.58,3.52l-4.18,5.79A13.46,13.46,0,0,0,180.25,9c-1.28,0-1.87.44-1.87,1.06v.07c0,.7.7,1.14,3.41,1.65,6.56,1.21,11,3.12,11,8.29v.07c0,5.39-4.44,8.69-11.33,8.69C176.22,28.87,171.52,27.41,168.26,24.55Z"/><path class="cls-3" d="M195.35,2.74h8l9.13,11.33V2.74H221V28.4h-7.63l-9.53-11.84V28.4h-8.51Z"/><path class="cls-3" d="M233.2,2.55h8.51L252.52,28.4h-9.31L241.85,25h-9l-1.32,3.45h-9.17Zm6.53,16.31-2.35-6.23L235,18.86Z"/><path class="cls-3" d="M253.87,2.74h8.58v9.6l7.3-9.6h10l-8.95,11.14L279.9,28.4H269.67l-5-8.14-2.2,2.68V28.4h-8.58Z"/><path class="cls-3" d="M281.09,2.74h21v7H289.52v2.6l5.87,3.92-5.87,5.06H302v7H281.09Z"/><path class="cls-3" d="M21.74,14.92c2.74-1.48,4.6-3.48,4.6-5.88V9a5.49,5.49,0,0,0-1.58-4A8.69,8.69,0,0,0,19,2.67H4.06V9.73H16.65v2.61l-5.73,4,5.73,5H4V28.4H19c5.39-.49,8.2-3.42,8.2-7.16v-.07C27.18,17.64,25,15.87,21.74,14.92Z"/></g></svg>