<svg xmlns="http://www.w3.org/2000/svg" xmlns:xlink="http://www.w3.org/1999/xlink" viewBox="0 0 209.67 208.67"><defs><style>.cls-1{isolation:isolate;}.cls-2{fill:#c5c3c6;}.cls-3{fill:#4c5c68;}.cls-4{fill:#1584a2;}.cls-4,.cls-5,.cls-6,.cls-8,.cls-9{mix-blend-mode:multiply;}.cls-5,.cls-7{fill:none;stroke:#ff743e;stroke-miterlimit:10;stroke-width:2px;}.cls-8,.cls-9{fill-rule:evenodd;opacity:0.3;}.cls-8{fill:url(#linear-gradient);}.cls-9{fill:url(#linear-gradient-2);}</style><linearGradient id="linear-gradient" x1="144.24" y1="105.84" x2="144.24" y2="59.76" gradientUnits="userSpaceOnUse"><stop offset="0" stop-color="#fff"/><stop offset="1" stop-color="#6a6676"/></linearGradient><linearGradient id="linear-gradient-2" x1="-37.23" y1="105.88" x2="-37.23" y2="59.97" gradientTransform="matrix(-1, 0, 0, 1, 24.65, 0)" xlink:href="#linear-gradient"/></defs><title>division advanced</title><g id="Ellipse_3_copy_4" data-name="Ellipse 3 copy 4" class="cls-1"><rect class="cls-2" x="7.56" y="69.93" width="192.77" height="71.83" transform="translate(105.29 -42.5) rotate(45)"/><rect class="cls-2" x="7.56" y="69.93" width="192.77" height="71.83" transform="translate(-44.4 104.5) rotate(-45)"/><path class="cls-3" d="M44.6,182.14,167,59.76l-16.55.07L152.23,45l-3.94-3.94L25.83,163.37ZM138.88,61.23a2.47,2.47,0,1,1-3.5,0A2.47,2.47,0,0,1,138.88,61.23Z"/><path class="cls-4" d="M163.29,183.49l18.77-18.77L58.26,41.07,54.32,45l1.81,14.81-16.55-.07ZM67.67,61.23a2.47,2.47,0,1,1,0,3.5A2.47,2.47,0,0,1,67.67,61.23Z"/><polyline class="cls-5" points="159.44 187.33 57.19 85.08 64.77 105 67.15 99.63"/><g class="cls-6"><line class="cls-7" x1="149.27" y1="85.08" x2="48.41" y2="185.94"/><path class="cls-7" d="M150.94,88.59a9.22,9.22,0,1,1-13,13"/><line class="cls-7" x1="142.05" y1="93.08" x2="150.76" y2="101.79"/></g><rect class="cls-2" x="98.94" y="37.93" width="10.15" height="10.15" transform="translate(60.87 -60.96) rotate(45)"/><rect class="cls-2" x="98.94" y="164.28" width="10.15" height="10.15" transform="translate(150.22 -23.95) rotate(45)"/><polygon class="cls-8" points="121.51 105.13 154.83 105.84 166.64 94.33 166.97 59.76 121.51 105.13"/><polygon class="cls-9" points="84.51 104.77 53.13 105.88 39.24 91.79 39.57 59.97 84.51 104.77"/></g></svg>